<svg width="25" height="28" viewBox="0 0 25 28" fill="none" xmlns="http://www.w3.org/2000/svg">
<path d="M11.5702 1.00667L9.89021 0L9.57021 1.932C9.06088 4.98267 6.97688 7.81733 4.67821 9.80933C0.178215 13.7107 -0.807118 17.9507 0.586215 21.4507C1.91955 24.8 5.30355 27.0933 8.73822 27.476L9.53288 27.564C7.56755 26.3627 6.30621 23.556 6.74621 21.4587C7.18088 19.3973 8.66355 17.4667 11.5115 15.6853L12.9475 14.7893L13.4835 16.396C13.7995 17.3453 14.3462 18.108 14.9022 18.8827C15.1689 19.256 15.4395 19.6333 15.6875 20.0347C16.5449 21.428 16.7715 22.9773 16.2182 24.5147C15.7142 25.912 14.8835 27.0107 13.7382 27.62L15.0315 27.476C18.2555 27.1173 20.6222 26.0147 22.1595 24.1707C23.6835 22.3427 24.2182 19.9893 24.2182 17.484C24.2182 15.1507 23.2596 12.7453 22.1289 10.744C20.8036 8.4 19.0742 6.45333 17.1862 4.56667C16.8595 5.22 16.8849 5.484 16.2129 6.53333C15.3402 4.21595 13.7023 2.2661 11.5702 1.00667Z" fill="#C30027"/>
</svg>
