<svg width="68" height="68" viewBox="0 0 68 68" fill="none" xmlns="http://www.w3.org/2000/svg">
<g clip-path="url(#clip0_449_1170)">
<path d="M21.1836 0.669667C20.8383 0.759849 20.4266 1.09052 19.9883 1.58652L19.3243 2.35307L18.0625 6.81709L16.8008 11.2961H16.1368C15.1407 11.2961 13.7196 11.6869 12.7766 12.213C11.7938 12.7541 10.4258 14.1519 9.82818 15.204C9.16412 16.3614 8.95162 17.173 8.23443 21.1711C7.86256 23.2152 7.53053 25.0038 7.50397 25.1241C7.45084 25.3195 7.02584 25.3495 4.74147 25.3495H2.04538L1.3946 25.8004C0.916472 26.1311 0.637566 26.4768 0.371941 27.063C0.0133476 27.8295 6.63785e-05 27.9648 6.63785e-05 29.9338C6.63785e-05 32.2635 0.159441 33.0751 0.783659 33.9619C1.00944 34.2926 1.52741 34.7435 1.95241 34.984C2.37741 35.2245 2.74928 35.4349 2.77585 35.4499C2.80241 35.465 2.37741 36.2165 1.83288 37.1033C-0.0397772 40.1544 6.63785e-05 39.959 6.63785e-05 46.2417C6.63785e-05 51.7278 0.0797538 52.5394 0.783659 54.1026C1.27507 55.1998 2.41725 56.6277 3.33366 57.3041C4.07741 57.8452 5.55162 58.4915 6.04303 58.4915H6.36178L6.40162 61.6178C6.44147 64.5487 6.45475 64.7742 6.76022 65.4505C7.15865 66.3674 8.06178 67.1339 8.99146 67.3594C9.44303 67.4646 11.1696 67.5097 13.8391 67.4796C17.8102 67.4345 18.0227 67.4195 18.5274 67.1039C19.218 66.683 19.8555 65.9315 20.1477 65.18C20.3336 64.684 20.3868 64.0377 20.4266 61.6028L20.4797 58.6418H21.5954H22.711V59.6488C22.711 61.4374 23.5743 62.8803 24.8891 63.2862C25.2743 63.4214 27.9571 63.4515 34.2922 63.4214L43.1375 63.3763L43.7086 62.9254C44.0274 62.6699 44.4656 62.1889 44.6781 61.8282C45.0235 61.2871 45.0766 61.0316 45.1297 59.9194L45.1961 58.6418H46.3516H47.5203L47.5735 61.6028C47.6133 64.0377 47.6664 64.684 47.8524 65.18C48.1446 65.9315 48.782 66.683 49.4727 67.1039C49.9774 67.4195 50.1899 67.4345 54.161 67.4796C56.8305 67.5097 58.557 67.4646 59.0086 67.3594C59.9383 67.1339 60.8414 66.3674 61.2399 65.4505C61.5453 64.7742 61.5586 64.5487 61.5984 61.6028L61.6383 58.4915H61.957C62.4484 58.4915 63.9227 57.8452 64.6664 57.3041C66.1938 56.1918 67.5352 53.9373 67.8539 51.9683C67.9336 51.4422 68 49.0073 68 46.1515C68 40.1244 68 40.1544 66.3266 37.3588C65.7023 36.3217 65.2109 35.465 65.2375 35.4499C65.2508 35.4349 65.6227 35.2395 66.0344 35.014C66.9109 34.5481 67.6281 33.5561 67.8539 32.534C67.9336 32.1883 68 31.0009 68 29.8887C68 27.9648 67.9867 27.8295 67.6281 27.063C67.3625 26.4768 67.0836 26.1311 66.6055 25.8004L65.9547 25.3495H63.2586C60.9742 25.3495 60.5492 25.3195 60.4961 25.1241C60.4695 25.0038 60.1375 23.2152 59.7656 21.1711C59.3938 19.127 58.982 17.1129 58.8492 16.692C58.4774 15.5948 57.8664 14.6028 57.0031 13.6709C55.6352 12.198 54.2274 11.5066 52.3281 11.3412L51.186 11.251L49.9375 6.80206L48.6758 2.35307L48.0117 1.58652C47.5203 1.0304 47.1883 0.78991 46.7235 0.654637C46.2852 0.519364 43.868 0.474273 38.343 0.474273C30.693 0.474273 30.5735 0.474273 30.2282 0.78991C29.8297 1.13561 29.7633 1.8721 30.0688 2.3681C30.2547 2.63864 30.5336 2.65368 38.3032 2.72883C46.1922 2.80398 46.3516 2.80398 46.6172 3.11962C46.7899 3.31501 47.2946 4.87817 47.9985 7.35818L49.1008 11.2961H34H18.8993L20.0016 7.35818C20.7055 4.87817 21.2102 3.31501 21.3829 3.11962C21.6352 2.83404 21.861 2.80398 23.9727 2.72883C26.4696 2.65368 26.5891 2.60858 26.7618 1.79694C26.8414 1.46628 26.775 1.30094 26.4563 0.925183L26.0579 0.474273L23.8797 0.489303C22.6844 0.504333 21.4758 0.579485 21.1836 0.669667ZM54.0813 14.1068C55.9938 15.1289 56.8836 16.5568 57.4414 19.5628C57.9859 22.4938 59.8984 33.0751 59.8984 33.1653C59.8984 33.2104 59.4203 33.2405 58.8492 33.2405C57.9594 33.2405 57.7867 33.1954 57.7203 32.9699C57.6805 32.8346 57.1359 29.8436 56.4984 26.3265C55.7414 22.0879 55.2367 19.668 55.0242 19.157C54.586 18.0899 53.643 17.0528 52.5938 16.4966L51.7305 16.0307H34H16.2696L15.4063 16.4966C14.3571 17.0528 13.4141 18.0899 12.9758 19.157C12.7633 19.668 12.2586 22.0879 11.5016 26.3265C10.8641 29.8436 10.3196 32.8346 10.2797 32.9699C10.2133 33.1954 10.0407 33.2405 9.15084 33.2405C8.57975 33.2405 8.10162 33.1954 8.10162 33.1503C8.10162 33.1052 8.40709 31.4068 8.77896 29.3626C11.0899 16.5417 10.9969 16.9175 12.1657 15.5046C12.7899 14.7381 13.9852 13.9415 14.8219 13.716C15.1274 13.6409 23.1227 13.5808 34.2657 13.5958L53.1914 13.6258L54.0813 14.1068ZM28.4485 19.0668C28.7938 20.134 29.8297 21.3965 30.786 21.9226C31.5297 22.3435 31.5828 22.3435 34 22.3435C36.4172 22.3435 36.4703 22.3435 37.2141 21.9226C38.1703 21.3965 39.2063 20.134 39.5516 19.0668L39.8172 18.2853L45.3555 18.2402C48.968 18.2251 51.0797 18.2552 51.425 18.3604C52.0094 18.5408 52.9125 19.3975 53.2047 20.0588C53.3906 20.4346 55.6484 32.4739 55.6484 33.03C55.6484 33.1954 55.3297 33.2405 53.882 33.2405H52.1024L51.6242 29.3927C51.3188 27.0179 51.0399 25.3195 50.8805 24.9136C50.5219 23.9667 49.7516 23.095 48.9016 22.614L48.1446 22.1931H43.961C39.9633 22.1931 39.7508 22.2082 39.1664 22.5088C38.2899 22.9747 37.5196 23.8164 37.1211 24.7483C36.8422 25.3796 36.6828 26.2964 36.2844 29.3927L35.793 33.2405H33.9735C32.5922 33.2405 32.1407 33.1954 32.1407 33.0451C32.1407 32.9549 31.9282 31.2114 31.6758 29.1823C31.3039 26.2664 31.1446 25.3495 30.8789 24.7333C30.4805 23.8164 29.6969 22.9597 28.8336 22.5088C28.2493 22.2082 28.0368 22.1931 24.0391 22.1931C20.0415 22.1931 19.829 22.2082 19.2446 22.5088C18.3813 22.9597 17.5977 23.8164 17.1993 24.7182C16.9336 25.3495 16.7743 26.2964 16.3758 29.3777L15.8977 33.2405H14.118C12.6704 33.2405 12.3516 33.1954 12.3516 33.03C12.3516 32.4739 14.6094 20.4346 14.7821 20.0588C15.0876 19.4276 15.8446 18.661 16.4157 18.4356C16.8274 18.2702 18.0493 18.2251 22.5649 18.2552L28.1829 18.2853L28.4485 19.0668ZM37.5328 18.6159C36.975 19.8334 36.218 20.1641 34 20.1641C31.7821 20.1641 31.025 19.8334 30.4672 18.6159L30.268 18.2101H34H37.7321L37.5328 18.6159ZM28.1032 24.6581C29.0993 25.1692 29.1922 25.4848 29.6969 29.4528C29.9493 31.4068 30.1485 33.0601 30.1485 33.1202C30.1485 33.1954 27.3993 33.2405 24.0391 33.2405C19.2446 33.2405 17.9297 33.1954 17.9297 33.0451C17.9297 32.9549 18.129 31.3316 18.3813 29.4528C18.8727 25.6201 19.0055 25.2443 19.9219 24.7032C20.493 24.3876 20.6391 24.3726 24.0391 24.3726C27.1868 24.3726 27.6118 24.4026 28.1032 24.6581ZM48.0781 24.7032C48.9945 25.2443 49.1274 25.6201 49.6188 29.4528C49.8711 31.3316 50.0703 32.9549 50.0703 33.0451C50.0703 33.1503 49.9242 33.2405 49.7516 33.2405C49.4992 33.2405 49.4063 33.1353 49.3399 32.7445C49.1938 31.9779 48.6625 30.8055 48.1313 30.1141C46.0992 27.4237 42.5 27.2584 40.2821 29.7685C39.5914 30.5651 38.9407 31.8727 38.8211 32.7294C38.7547 33.1954 38.7016 33.2405 38.3032 33.2405C37.9578 33.2405 37.8516 33.1803 37.8516 32.9699C37.8516 32.8346 38.0641 31.1813 38.3032 29.3025C38.9805 24.2072 38.7813 24.3876 43.961 24.3726C47.361 24.3726 47.5071 24.3876 48.0781 24.7032ZM7.01256 27.8596C6.97272 28.055 6.74694 29.3326 6.49459 30.7154L6.04303 33.2405H4.67506C2.28444 33.2405 1.99225 32.8948 1.99225 30.039C1.99225 28.1752 1.99225 28.1452 2.33756 27.8446C2.6696 27.559 2.86881 27.5289 4.88756 27.5289H7.06568L7.01256 27.8596ZM65.6625 27.8446C66.0078 28.1452 66.0078 28.1752 66.0078 30.039C66.0078 32.8797 65.7422 33.1954 63.3516 33.2555L61.9703 33.2856L61.4789 30.5951C61.2 29.1071 60.9742 27.8145 60.9742 27.7093C60.9609 27.574 61.4789 27.5289 63.1391 27.5289C65.1313 27.5289 65.3305 27.559 65.6625 27.8446ZM45.05 30.3847C45.8336 30.6402 46.6438 31.4218 47.0555 32.3386L47.4274 33.1653L44.1469 33.2104C42.3406 33.2254 40.8399 33.2254 40.8133 33.1803C40.6938 33.0451 41.2117 31.9328 41.6102 31.4519C42.4735 30.4298 43.8281 30.0089 45.05 30.3847ZM10.5454 36.7726C11.236 38.7115 11.5415 39.2676 12.4313 40.2596C14.0251 42.0783 15.6719 42.6344 19.1649 42.5292C21.25 42.4691 21.5157 42.3338 21.5157 41.3418C21.5157 40.4099 21.2633 40.3047 18.979 40.3047C17.9165 40.3047 16.7211 40.2296 16.3227 40.1544C14.636 39.7937 13.3344 38.5612 12.6438 36.6373L12.2321 35.495H34.0133C45.9797 35.495 55.7813 35.5251 55.7813 35.5551C55.7813 35.6002 55.582 36.1413 55.3297 36.7576C54.5727 38.6364 53.3242 39.7937 51.6774 40.1544C51.2258 40.2446 46.2188 40.3047 38.011 40.3047C26.1375 40.3047 25.0352 40.3198 24.8094 40.5602C24.4641 40.9059 24.4907 41.8228 24.8493 42.1986C25.1149 42.4691 25.5532 42.4841 37.9047 42.5292C46.2719 42.5593 51.0399 42.5142 51.7305 42.409C53.2445 42.1835 54.5063 41.4771 55.5953 40.2446C56.3125 39.4179 56.5914 38.967 57.2555 37.3738L58.0524 35.495H59.7524C61.6914 35.495 62.3688 35.6904 63.1656 36.457C63.8828 37.1484 65.6891 40.2296 65.875 41.0563C65.9813 41.5222 66.0078 43.3409 65.9813 46.7678C65.9281 52.3891 65.9016 52.5094 64.9719 53.9072C64.3477 54.8391 63.418 55.6357 62.5148 56.0265C61.8375 56.3121 61.2266 56.3121 34 56.3121C6.7735 56.3121 6.16256 56.3121 5.48522 56.0265C4.58209 55.6357 3.65241 54.8391 3.02819 53.9072C2.0985 52.5094 2.07194 52.3891 2.01881 46.7678C1.99225 43.3409 2.01881 41.5222 2.12506 41.0563C2.311 40.2146 4.11725 37.1484 4.83444 36.457C5.65787 35.6453 6.2024 35.51 8.27428 35.5401L10.1204 35.5702L10.5454 36.7726ZM18.4344 61.4975L18.3946 64.3533L18.0227 64.7591L17.6641 65.18H13.4008H9.13756L8.7524 64.684L8.36725 64.203V61.4224V58.6418H13.4274H18.4875L18.4344 61.4975ZM43.1641 59.5436C43.1641 60.3101 43.111 60.5206 42.8321 60.8212L42.5133 61.1969H33.9336H25.3539L25.0352 60.8212C24.7563 60.5206 24.7032 60.3101 24.7032 59.5436V58.6418H33.9336H43.1641V59.5436ZM59.6328 61.4224V64.203L59.2477 64.684L58.8625 65.18H54.5992H50.336L49.9774 64.7591L49.6055 64.3533L49.5656 61.4975L49.5125 58.6418H54.5727H59.6328V61.4224Z" fill="currentColor"/>
<path d="M6.82656 42.3939C6.1625 42.7396 5.84375 43.1755 5.20625 44.6485C4.74141 45.7156 4.71484 45.8509 4.71484 47.2938C4.71484 48.7067 4.74141 48.872 5.15312 49.8189C5.79062 51.2769 7.0125 52.6146 8.40703 53.3661C9.96093 54.2078 10.6117 54.313 14.2109 54.2529C17.2125 54.2078 17.3586 54.1927 17.9961 53.832C21.1703 52.0584 21.157 47.0082 17.9562 45.2497C17.3984 44.9491 17.0531 44.8889 14.8086 44.7988C11.6742 44.6785 10.8109 44.3929 9.4164 43.0703C8.36718 42.0783 7.75625 41.9129 6.82656 42.3939ZM9.21718 45.6555C9.65546 45.9411 10.4523 46.3619 11.0101 46.5723C11.9 46.918 12.3117 46.9782 14.4766 47.0533C15.9242 47.1134 17.0398 47.2187 17.1992 47.3239C18.4609 48.1355 18.7531 50.0293 17.8234 51.1867C17.1859 51.9532 16.8539 52.0284 13.8391 52.0284C10.1203 52.0284 9.37656 51.8029 7.9289 50.2398C7.06562 49.3079 6.64062 48.361 6.64062 47.3088C6.64062 46.4972 6.73359 46.1816 7.27812 44.9942L7.58359 44.3328L8.00859 44.7236C8.24765 44.934 8.79218 45.3549 9.21718 45.6555Z" fill="currentColor"/>
<path d="M59.566 42.3188C59.3535 42.424 58.9019 42.7697 58.5832 43.0703C57.1887 44.3929 56.3254 44.6785 53.191 44.7988C50.9066 44.8889 50.6012 44.934 50.0035 45.2647C46.8426 47.0082 46.8426 52.0584 50.0035 53.832C50.641 54.1927 50.7871 54.2078 53.7887 54.2529C57.3879 54.313 58.0387 54.2078 59.5926 53.3661C60.9871 52.6146 62.209 51.2769 62.8465 49.8189C63.2582 48.872 63.2847 48.7067 63.2847 47.2938C63.2847 45.8509 63.2582 45.7156 62.7933 44.6485C62.1558 43.1755 61.8371 42.7396 61.173 42.3939C60.5355 42.0632 60.1105 42.0482 59.566 42.3188ZM60.9473 45.5052C61.7176 47.2337 61.4254 48.7818 60.0707 50.2398C58.623 51.8029 57.8793 52.0284 54.1605 52.0284C51.1457 52.0284 50.8137 51.9532 50.1762 51.1867C49.2465 50.0293 49.5387 48.1355 50.8004 47.3239C50.9598 47.2187 52.0754 47.1134 53.523 47.0533C55.7012 46.9782 56.0996 46.918 56.9894 46.5723C58.0785 46.1515 59.1277 45.5052 59.8848 44.7988C60.1371 44.5583 60.3894 44.423 60.4426 44.4831C60.4957 44.5432 60.7215 45.0092 60.9473 45.5052Z" fill="currentColor"/>
<path d="M23.9727 45.0995C23.6805 45.2498 23.282 45.5655 23.0828 45.806C22.4187 46.6026 22.3125 47.1587 22.3125 49.5786C22.3125 52.0436 22.4586 52.6297 23.1891 53.4113C24.0391 54.3131 23.6937 54.2831 34 54.2831C44.3062 54.2831 43.9609 54.3131 44.8109 53.4113C45.5414 52.6297 45.6875 52.0436 45.6875 49.5786C45.6875 47.1587 45.5812 46.6026 44.9172 45.806C44.7179 45.5655 44.3195 45.2498 44.0273 45.0995C43.5226 44.829 42.9648 44.814 34 44.814C25.0352 44.814 24.4773 44.829 23.9727 45.0995ZM43.4297 47.3691C43.6687 47.6397 43.6953 47.8651 43.6953 49.5485C43.6953 51.2319 43.6687 51.4574 43.4297 51.7279C43.164 52.0285 42.9914 52.0285 34.0266 52.0285C25.9781 52.0285 24.8625 51.9985 24.5969 51.788C24.318 51.5776 24.3047 51.4574 24.3047 49.6086C24.3047 47.8651 24.3312 47.6397 24.5703 47.3691C24.8359 47.0685 25.0086 47.0685 34 47.0685C42.9914 47.0685 43.164 47.0685 43.4297 47.3691Z" fill="currentColor"/>
<path d="M24.585 4.47246C24.0803 5.19392 24.3592 6.05065 25.1694 6.2761C25.5014 6.36628 25.5014 6.39635 25.5014 7.86932C25.5014 9.25211 25.5279 9.38739 25.8334 9.71806C26.2451 10.199 26.8162 10.2141 27.2014 9.74812C27.467 9.43248 27.4936 9.23708 27.4936 7.88435V6.36628L27.892 6.26107C28.649 6.08071 28.9545 4.98349 28.4233 4.38228C28.1842 4.11173 27.985 4.08167 26.5108 4.08167C24.8772 4.08167 24.8506 4.08167 24.585 4.47246Z" fill="currentColor"/>
<path d="M31.1711 4.24702C30.8391 4.47247 29.0859 8.48558 29.0859 9.0417C29.0859 9.86837 29.8695 10.3493 30.5602 9.94352C30.693 9.85334 31.025 9.29722 31.2906 8.696L31.7687 7.62885L32.2469 8.66594C32.4992 9.23709 32.8047 9.79322 32.9242 9.89843C33.482 10.3944 34.4383 9.8834 34.4383 9.10182C34.4383 8.59079 32.9242 4.92338 32.5125 4.42738C32.207 4.05162 31.5828 3.97647 31.1711 4.24702Z" fill="currentColor"/>
<path d="M35.6088 4.47235C35.197 5.07356 35.2635 5.50944 35.8877 6.27599L36.4322 6.95236L35.9009 7.58363C35.6088 7.92933 35.29 8.36521 35.2103 8.54557C34.8916 9.26703 35.3963 10.0937 36.1666 10.0937C36.4588 10.0937 36.6978 9.91334 37.1228 9.38727L37.7072 8.68085L38.3713 9.38727C39.1416 10.1989 39.6197 10.3041 40.0845 9.748C40.5361 9.20691 40.4564 8.72594 39.7658 7.77903L39.1549 6.95236L39.6595 6.26096C40.2306 5.44932 40.297 4.77295 39.8322 4.3521C39.3541 3.90119 38.8095 4.00641 38.2517 4.66774L37.747 5.25393L37.2424 4.66774C36.6049 3.93125 36.0338 3.87113 35.6088 4.47235Z" fill="currentColor"/>
<path d="M41.8492 4.47246C41.5969 4.83319 41.5703 5.07367 41.5703 7.1178C41.5703 9.2972 41.5836 9.37236 41.9023 9.71806C42.3141 10.199 42.8852 10.2141 43.2703 9.74812C43.5492 9.41745 43.5625 9.25211 43.5625 7.07271C43.5625 4.81816 43.5492 4.72798 43.257 4.41234C42.8187 3.9464 42.1945 3.97646 41.8492 4.47246Z" fill="currentColor"/>
</g>
<defs>
<clipPath id="clip0_449_1170">
<rect width="68" height="68" fill="white"/>
</clipPath>
</defs>
</svg>
