<svg width="19" height="19" viewBox="0 0 19 19" fill="none" xmlns="http://www.w3.org/2000/svg">
<path d="M5.45086 1C5.62932 1 5.80453 1.04776 5.9583 1.13832C6.11207 1.22888 6.23881 1.35894 6.32536 1.515L7.54836 3.718C7.62722 3.86011 7.67026 4.01929 7.67374 4.18178C7.67723 4.34426 7.64106 4.50514 7.56836 4.6505L6.39036 7.0075C6.39036 7.0075 6.73186 8.763 8.16086 10.1925C9.59036 11.6215 11.3399 11.9575 11.3399 11.9575L13.6964 10.779C13.8418 10.7062 14.0028 10.67 14.1653 10.6735C14.3279 10.677 14.4872 10.7201 14.6294 10.799L16.8394 12.028C16.9951 12.1147 17.1248 12.2414 17.2151 12.3951C17.3053 12.5488 17.3529 12.7238 17.3529 12.902V15.4385C17.3529 16.7305 16.1529 17.6635 14.9289 17.2505C12.4149 16.402 8.51236 14.787 6.03886 12.3135C3.56586 9.84 1.95036 5.938 1.10236 3.4235C0.689364 2.2 1.62236 1 2.91436 1H5.45086Z" fill="currentColor" stroke="currentColor" stroke-width="2" stroke-linejoin="round"/>
</svg>
