<svg width="68" height="68" viewBox="0 0 68 68" fill="none" xmlns="http://www.w3.org/2000/svg">
<path d="M15.0083 0.345311C14.4106 0.610936 13.9856 1.00937 13.6669 1.62031C13.4145 2.11172 13.4145 2.62969 13.4411 20.8117L13.481 39.5117L13.7864 39.95C13.9591 40.1758 14.3177 40.5344 14.57 40.7469L15.0481 41.1055L28.1435 41.1719L41.2388 41.2383L41.8497 41.743C42.1685 42.0219 43.7224 43.1641 45.2895 44.293C47.5208 45.9 48.2247 46.3516 48.5567 46.3516C48.8755 46.3516 49.6192 45.8867 51.9434 44.2266C55.8747 41.3977 56.7247 40.5609 57.3755 38.7945C57.8536 37.5328 57.9067 36.882 57.9067 32.1539C57.9067 28.0102 57.8802 27.532 57.6677 27.2664C57.3888 26.8945 54.7591 25.6461 53.1786 25.1148C51.8505 24.6633 49.9645 24.3047 48.995 24.3047H48.3442V16.9336C48.3442 9.89453 48.3309 9.52266 48.0919 9.05781C47.7067 8.32734 39.8974 0.584374 39.2864 0.33203C38.8481 0.159374 37.3208 0.132811 27.1341 0.132811C17.0138 0.146092 15.4067 0.172655 15.0083 0.345311ZM37.852 5.27266C37.852 8.5 37.9317 9.05781 38.4763 9.69531C39.2067 10.5719 39.4856 10.625 43.0317 10.625H46.2192V17.5578V24.5039L45.1833 24.743C44.1208 25.0086 41.8895 25.8719 40.5481 26.5359C39.1669 27.2398 39.2466 26.9078 39.2067 31.7289C39.1669 35.9125 39.2599 37.4398 39.6185 38.5023L39.8177 39.0469L27.7052 39.0203L15.606 38.9805L15.5661 20.7984C15.5528 7.47734 15.5794 2.57656 15.6856 2.44375C15.8185 2.28437 17.7442 2.25781 26.8419 2.25781H37.852V5.27266ZM42.4075 8.47344C40.7341 8.5 40.1763 8.46016 40.0833 8.34062C40.0302 8.24766 39.977 7.18516 39.977 5.97656V3.78516L42.3013 6.10937L44.6255 8.43359L42.4075 8.47344ZM50.1638 26.5758C51.4122 26.7352 53.5505 27.4391 54.8388 28.0898L55.7817 28.5547V32.5391C55.7817 34.9695 55.7286 36.7891 55.6356 37.2141C55.4231 38.2102 54.9317 39.1133 54.2145 39.8305C53.6434 40.3883 48.7692 43.9609 48.57 43.9609C48.3974 43.9609 43.3505 40.282 42.8856 39.8305C41.5044 38.4492 41.3052 37.5461 41.3052 32.4328V28.5414L42.4474 28.0102C45.3692 26.6555 47.6669 26.2305 50.1638 26.5758Z" fill="currentColor"/>
<path d="M29.2342 5.25937C27.1225 5.83047 25.4757 7.45078 24.8116 9.60234C24.5858 10.3461 24.546 10.7445 24.5991 11.7539C24.6522 12.8297 24.7319 13.1352 25.1436 13.9984C26.2592 16.3492 28.3178 17.6641 30.8811 17.6641C32.7936 17.6641 34.2944 17.0133 35.5694 15.6055C38.3053 12.6172 37.4819 7.75625 33.896 5.80391C32.5546 5.07344 30.7217 4.86094 29.2342 5.25937ZM32.7405 7.59687C33.5374 8.00859 34.2546 8.73906 34.6796 9.5625C34.9452 10.0539 34.9983 10.3594 34.9983 11.3555C34.9983 12.7367 34.7061 13.507 33.8561 14.357C33.0592 15.1539 32.3686 15.4461 31.1467 15.5125C29.8053 15.5789 28.8624 15.2602 28.0124 14.4367C27.0694 13.5336 26.7639 12.7898 26.7639 11.3555C26.7639 10.0008 27.0163 9.36328 27.8796 8.46016C28.7561 7.51719 29.6858 7.15859 31.0803 7.225C31.8374 7.25156 32.2358 7.34453 32.7405 7.59687Z" fill="currentColor"/>
<path d="M32.3698 9.04449C32.1705 9.19059 31.6526 9.78824 31.201 10.3593L30.3909 11.4218L29.8198 10.957C29.4213 10.625 29.1291 10.4921 28.7971 10.4921C28.1729 10.4921 27.7213 10.9703 27.7877 11.5679C27.8143 11.9265 28.0135 12.1656 28.8768 12.9093C30.7362 14.5164 30.7096 14.5296 33.5119 10.8507C34.0963 10.0804 34.1494 9.56246 33.6713 9.09762C33.2862 8.69918 32.8213 8.67262 32.3698 9.04449Z" fill="currentColor"/>
<path d="M18.8739 20.6656C18.502 21.1305 18.5286 21.5555 18.9137 22.007L19.2325 22.3789H30.8801H42.5278L42.8465 22.007C43.2317 21.5555 43.2583 21.1305 42.8864 20.6656L42.6208 20.3203H30.8801H19.1395L18.8739 20.6656Z" fill="currentColor"/>
<path d="M18.8739 26.775C18.502 27.2398 18.5286 27.6648 18.9137 28.1164L19.2325 28.4883H28.0247H36.8169L37.1356 28.1164C37.5208 27.6648 37.5473 27.2398 37.1754 26.775L36.9098 26.4297H28.0247H19.1395L18.8739 26.775Z" fill="currentColor"/>
<path d="M18.9259 32.8711C18.5009 33.2828 18.5009 33.7477 18.9126 34.2258L19.2314 34.5977H27.997H36.7626L37.1079 34.2789C37.5329 33.8805 37.5595 33.3625 37.1743 32.8844L36.9087 32.5391H28.0767H19.2446L18.9259 32.8711Z" fill="currentColor"/>
<path d="M51.2391 31.3703C51.1328 31.4632 50.3625 32.4062 49.5391 33.4687C48.7156 34.5312 47.9984 35.4476 47.9453 35.5007C47.8922 35.5539 47.3742 35.2218 46.8031 34.757C45.5813 33.7609 45.4352 33.6945 44.8906 33.8804C44.4258 34.0531 44.2266 34.3453 44.2266 34.8898C44.2266 35.3281 44.5852 35.7132 46.3914 37.1742C47.6531 38.1968 48.1711 38.3562 48.7156 37.8781C49.1539 37.4929 52.8195 32.7648 52.9125 32.446C53.0188 32.1007 52.7133 31.4101 52.3945 31.2906C52.0359 31.1578 51.4648 31.1976 51.2391 31.3703Z" fill="currentColor"/>
<path d="M21.2519 44.0405C20.0831 44.3593 18.994 45.0632 15.594 47.7062C15.4878 47.7859 15.355 47.6663 15.169 47.3741C14.9831 47.0554 14.7175 46.8429 14.2925 46.6835L13.6815 46.4444L11.7159 46.9624C9.9628 47.414 9.71045 47.5069 9.27217 47.9585C8.78077 48.4234 8.6878 48.7155 8.76748 49.4726C8.80733 50.0038 13.2831 66.5655 13.4823 66.9374C13.987 67.9069 14.7308 68.0265 16.8159 67.4687C19.5651 66.7382 20.0167 66.3663 19.8972 64.9054L19.8308 64.1484L20.4815 63.7499C21.4378 63.1655 22.5667 62.8202 23.5894 62.8202C24.2136 62.8202 25.7542 63.1124 28.8487 63.8163C33.7362 64.9452 34.4667 65.0515 35.8214 64.8257C37.0167 64.6132 37.6808 64.2944 41.4659 62.1163C43.1659 61.1335 47.4292 58.6632 50.9354 56.6444C54.9331 54.3468 57.5229 52.7663 57.8815 52.421C58.9706 51.3718 59.462 49.9241 59.2229 48.4234C58.9839 46.9624 58.0542 45.714 56.7261 45.0632C56.0753 44.7312 55.8362 44.6913 54.7206 44.6913C53.2065 44.6913 53.9237 44.346 46.5128 48.6226C43.4979 50.3757 41.0011 51.7968 40.9878 51.7968C40.9612 51.7968 40.8683 51.5179 40.7753 51.1593C40.4433 49.8179 39.4737 48.5694 38.2784 47.9585C37.9862 47.8124 34.5597 46.8163 30.655 45.7538C23.0581 43.6819 22.7659 43.6421 21.2519 44.0405ZM30.1237 47.8124C33.869 48.8351 37.0964 49.7515 37.2956 49.8577C39.3144 50.9069 39.2347 53.8023 37.1628 54.8648C36.3526 55.2765 35.662 55.1835 31.7839 54.121C29.7917 53.5765 28.0386 53.1249 27.9058 53.1249C27.773 53.1249 27.5073 53.2444 27.3081 53.4038C26.8698 53.7491 26.8167 54.546 27.2151 54.9046C27.3612 55.0374 29.1542 55.5952 31.3058 56.1929C34.294 57.003 35.33 57.2421 36.0206 57.2421C37.5878 57.2421 38.9956 56.5249 39.9784 55.2101C40.3769 54.6788 40.9081 54.3202 43.2456 52.9788C44.7729 52.089 47.7878 50.3491 49.9394 49.0874L53.8573 46.8163H54.7339C55.4378 46.8163 55.6901 46.8827 56.0886 47.1484C57.4167 48.0515 57.5097 50.1366 56.2612 51.053C56.0354 51.2257 51.5331 53.8554 46.2604 56.8968C35.8878 62.8734 35.7683 62.9265 34.2011 62.7804C33.7628 62.7273 31.5847 62.2757 29.3534 61.7577C23.7222 60.4429 22.5534 60.403 20.2823 61.4523C19.7245 61.7179 19.2331 61.9038 19.2065 61.8773C19.1401 61.7976 16.0722 50.3491 16.0722 50.1632C16.0722 50.0702 17.0815 49.2335 18.3167 48.3038C20.694 46.4976 21.7034 45.9663 22.7128 45.953C23.0714 45.953 25.98 46.6835 30.1237 47.8124ZM15.6206 56.8437C16.8026 61.2663 17.7323 64.9187 17.6925 64.9718C17.5065 65.1444 15.3815 65.6359 15.2753 65.5296C15.169 65.4101 11.0386 50.0968 10.9855 49.6187C10.9589 49.4194 11.1448 49.3132 12.0214 49.0609C12.6058 48.9015 13.1769 48.7687 13.2698 48.7819C13.4159 48.8085 14.08 51.0929 15.6206 56.8437Z" fill="currentColor"/>
</svg>
