<svg width="20" height="20" viewBox="0 0 20 20" fill="none" xmlns="http://www.w3.org/2000/svg">
<path d="M9.75 0C4.36547 0 0 4.36547 0 9.75C0 15.1345 4.36547 19.5 9.75 19.5C15.1345 19.5 19.5 15.1345 19.5 9.75C19.5 4.36547 15.1345 0 9.75 0ZM14.25 11.25H9.75C9.55109 11.25 9.36032 11.171 9.21967 11.0303C9.07902 10.8897 9 10.6989 9 10.5V3.75C9 3.55109 9.07902 3.36032 9.21967 3.21967C9.36032 3.07902 9.55109 3 9.75 3C9.94891 3 10.1397 3.07902 10.2803 3.21967C10.421 3.36032 10.5 3.55109 10.5 3.75V9.75H14.25C14.4489 9.75 14.6397 9.82902 14.7803 9.96967C14.921 10.1103 15 10.3011 15 10.5C15 10.6989 14.921 10.8897 14.7803 11.0303C14.6397 11.171 14.4489 11.25 14.25 11.25Z" fill="currentColor"/>
</svg>
