<svg width="22" height="16" viewBox="0 0 22 16" fill="none" xmlns="http://www.w3.org/2000/svg">
<path fill-rule="evenodd" clip-rule="evenodd" d="M0.068601 7.636C1.8026 3.194 5.8836 0 10.9996 0C16.1156 0 20.1966 3.194 21.9316 7.636C22.0231 7.87005 22.0231 8.12995 21.9316 8.364C20.1966 12.806 16.1156 16 10.9996 16C5.8836 16 1.8026 12.806 0.068601 8.364C-0.022867 8.12995 -0.022867 7.87005 0.068601 7.636ZM10.9996 11C11.7953 11 12.5583 10.6839 13.1209 10.1213C13.6835 9.55871 13.9996 8.79565 13.9996 8C13.9996 7.20435 13.6835 6.44129 13.1209 5.87868C12.5583 5.31607 11.7953 5 10.9996 5C10.204 5 9.44089 5.31607 8.87828 5.87868C8.31567 6.44129 7.9996 7.20435 7.9996 8C7.9996 8.79565 8.31567 9.55871 8.87828 10.1213C9.44089 10.6839 10.204 11 10.9996 11Z" fill="currentColor"/>
</svg>
