<svg width="68" height="68" viewBox="0 0 68 68" fill="none" xmlns="http://www.w3.org/2000/svg">
<path d="M2.125 2.81561C1.88594 2.98827 1.55391 3.29374 1.40781 3.49296L1.12891 3.86483V30.4805V57.0961L1.40781 57.468C1.55391 57.6672 1.88594 57.9726 2.125 58.1453L2.56328 58.4375H22.9102H43.257L43.6953 58.1453C44.5586 57.5476 44.6781 57.2422 44.7578 55.5555L44.8242 54.0148L45.8203 53.5898C46.3781 53.364 47.2547 52.8992 47.7859 52.5539C48.3172 52.2086 48.8086 51.9297 48.875 51.9297C48.9547 51.9297 49.6586 52.5539 50.4555 53.3242C51.8766 54.7055 51.9031 54.7453 51.7836 55.157C51.7039 55.4359 51.7039 55.7945 51.8102 56.2328C51.9562 56.8437 52.1555 57.0695 54.7055 59.5531C59.7391 64.4672 60.5227 65.1976 60.8812 65.3437C61.5055 65.5828 62.4484 65.5031 62.9531 65.1711C63.6836 64.7062 66.5125 61.7312 66.7383 61.1867C67.0172 60.5094 66.9906 59.8984 66.6453 59.2609C66.2602 58.5703 58.5703 51.093 57.8531 50.7078C57.4148 50.482 57.1891 50.4555 56.525 50.5219L55.7414 50.6015L54.2406 49.1273L52.7531 47.6531L53.4039 46.2984C53.7625 45.568 54.2008 44.4258 54.3867 43.7883C56.1797 37.4531 53.6031 30.6133 48.0516 27.0008C47.1617 26.4164 45.5281 25.593 45.0234 25.4601C44.7578 25.3937 44.7578 25.3406 44.7578 17.85C44.7578 10.6117 44.7445 10.293 44.4922 9.76171C44.1734 9.11092 37.9578 2.86874 37.4133 2.66952C37.1477 2.56327 31.6359 2.52342 19.8023 2.52342H2.56328L2.125 2.81561ZM35.8594 7.50389C35.8594 10.4922 35.9391 11.0101 36.457 11.2094C36.5766 11.2492 38.0242 11.289 39.6578 11.289H42.6328V18.0625V24.8226L42.2078 24.7297C41.9687 24.6765 40.8133 24.6367 39.6445 24.65C37.918 24.65 37.2937 24.7031 36.3508 24.9422C34.1727 25.4867 32.3797 26.3367 30.5867 27.6781L29.7766 28.289H26.5227C23.5477 28.289 23.2422 28.3156 22.9633 28.5414C22.5516 28.8734 22.5383 29.6437 22.95 30.0555C23.2289 30.3344 23.4016 30.3476 25.5 30.414L27.7445 30.4805L27.0406 31.5695C26.6422 32.1672 26.1906 32.9906 26.0312 33.389L25.7258 34.1062L24.4906 34.1594C23.0297 34.2125 22.6578 34.4383 22.6578 35.275C22.6578 35.9922 23.0562 36.2578 24.132 36.2578H24.9953L24.8758 36.9484C24.8227 37.3336 24.7695 38.7148 24.7695 40.0164V42.3672H24.0258C23.0562 42.3672 22.6578 42.6594 22.6578 43.35C22.6578 44.1601 23.043 44.4125 24.3445 44.4656L25.4336 44.5187L25.7656 45.3687C25.9383 45.8469 26.3367 46.657 26.6422 47.1883L27.2 48.1445L25.2211 48.2109C23.4016 48.2773 23.2289 48.3039 22.95 48.5695C22.5781 48.9414 22.5648 49.6851 22.9102 50.0703C23.1359 50.3226 23.2953 50.3359 26.0977 50.3359H29.0461L29.3648 50.6812C29.9758 51.332 31.6891 52.5406 32.8711 53.1515C34.1195 53.789 35.6469 54.3203 36.9883 54.5992C37.8648 54.7851 41.0125 54.8383 42.0086 54.6922L42.6328 54.5859V55.4492V56.3125H22.9102H3.1875V30.4805V4.64842H19.5234H35.8594V7.50389ZM39.5781 7.63671L41.1055 9.16405H39.5383H37.9844V7.63671C37.9844 6.79999 37.9977 6.10936 38.0242 6.10936C38.0375 6.10936 38.7414 6.79999 39.5781 7.63671ZM43.0711 27.0805C46.8297 28.0765 50.0836 30.839 51.6906 34.3719C51.9164 34.8633 52.2484 35.8328 52.4344 36.5234C52.7133 37.5992 52.7664 38.0773 52.7664 39.7109C52.7664 41.3578 52.7133 41.8226 52.4344 42.9117C51.1859 47.6 47.7062 51.0531 42.925 52.3547C42.1016 52.5805 41.5039 52.6336 39.8437 52.6469C37.9844 52.6601 37.6523 52.6203 36.4836 52.2883C31.9414 51.0265 28.4352 47.5336 27.2 43.018C26.9344 42.0617 26.8945 41.5969 26.8945 39.6445C26.8945 36.9883 27.0937 36.1117 28.1562 33.9336C29.9625 30.2414 33.5219 27.5586 37.6258 26.8281C38.8078 26.6289 41.8891 26.7617 43.0711 27.0805ZM53.8422 51.6375L54.2141 52.0359L53.7758 52.5805L53.3375 53.125L52.8727 52.7C51.6508 51.5844 50.6016 50.5351 50.6016 50.4156C50.6016 50.3359 50.7875 50.0836 51.0266 49.8445L51.4383 49.4195L52.4477 50.3226C53.0055 50.8273 53.6297 51.425 53.8422 51.6375ZM60.8945 56.4055C63.0461 58.5039 64.8125 60.2437 64.8125 60.2836C64.8125 60.4562 61.9969 63.3515 61.8242 63.3515C61.6781 63.3515 58.1187 59.9914 54.732 56.6312L53.7359 55.6617L55.25 54.1211C56.0867 53.2844 56.8039 52.5937 56.857 52.5937C56.9234 52.5937 58.7297 54.307 60.8945 56.4055Z" fill="currentColor"/>
<path d="M8.00859 13.2812C7.13203 13.8125 7.10547 13.9851 7.10547 18.1953C7.10547 22.4054 7.13203 22.5781 8.00859 23.1226C8.40703 23.3617 8.64609 23.375 12.4445 23.3484L16.4422 23.3085L16.8008 22.9765C17.518 22.3125 17.5313 22.2195 17.5313 18.1953C17.5313 14.025 17.4914 13.7859 16.668 13.2812C16.2563 13.0289 16.0172 13.0156 12.3383 13.0156C8.69922 13.0156 8.40703 13.0289 8.00859 13.2812ZM15.4063 18.1953V21.25H12.2852H9.16406V18.1953V15.1406H12.2852H15.4063V18.1953Z" fill="currentColor"/>
<path d="M13.2281 16.3624C12.9227 16.6812 12.5109 17.1327 12.325 17.3851L11.9797 17.8499L11.5016 17.4249C10.625 16.6546 9.5625 16.9734 9.5625 18.0093C9.5625 18.4077 9.69531 18.6202 10.3992 19.3507C11.3422 20.3468 11.8336 20.6124 12.3648 20.4265C12.7898 20.2804 15.1406 17.3718 15.1406 16.9999C15.1406 16.3757 14.5961 15.8046 13.9852 15.8046C13.8656 15.8046 13.5336 16.057 13.2281 16.3624Z" fill="currentColor"/>
<path d="M23.4268 14.1711C22.6697 14.3172 22.3775 15.4726 22.9619 15.9508C23.2541 16.1898 23.6393 16.2031 30.665 16.2031C38.6736 16.2031 38.5143 16.2164 38.7002 15.4859C38.833 14.968 38.5674 14.4898 38.0494 14.2773C37.6643 14.1047 36.4424 14.0781 30.6518 14.0914C26.8268 14.1047 23.5729 14.1445 23.4268 14.1711Z" fill="currentColor"/>
<path d="M23.2804 20.1874C22.8289 20.3733 22.5367 20.9046 22.6429 21.3827C22.8289 22.2062 22.5765 22.1796 30.6515 22.1796C35.1008 22.1796 38.089 22.1265 38.2351 22.0468C38.6469 21.8343 38.8328 21.1968 38.6203 20.7718C38.2883 20.0546 38.3547 20.0546 30.6781 20.0679C26.7734 20.0679 23.4398 20.121 23.2804 20.1874Z" fill="currentColor"/>
<path d="M8.00859 27.3593C7.13203 27.8906 7.10547 28.0632 7.10547 32.2734C7.10547 36.4835 7.13203 36.6562 8.00859 37.2007C8.40703 37.4398 8.64609 37.4531 12.4445 37.4265L16.4555 37.3867L16.8539 37.0015C17.5313 36.3507 17.5445 36.2046 17.5047 32.0609C17.4516 26.7218 17.8367 27.0937 12.325 27.0937C8.69922 27.0937 8.40703 27.107 8.00859 27.3593ZM15.4063 32.2734V35.3281H12.2852H9.16406V32.2734V29.2187H12.2852H15.4063V32.2734Z" fill="currentColor"/>
<path d="M9.96032 29.8829C9.46891 30.3743 9.56188 30.9853 10.2658 31.7024L10.8103 32.2735L10.2658 32.8314C9.56188 33.5618 9.46891 34.1728 9.96032 34.6642C10.4119 35.1157 11.0627 35.0228 11.7533 34.3853L12.3509 33.8274L12.9486 34.3853C13.6791 35.0626 14.3033 35.129 14.7283 34.5845C15.1533 34.0399 15.0869 33.5884 14.4627 32.8845L13.9181 32.2735L14.4627 31.6626C15.0869 30.9587 15.1533 30.5071 14.7283 29.9626C14.3033 29.4181 13.6791 29.4845 12.9486 30.1618L12.3509 30.7196L11.7533 30.1618C11.0627 29.5243 10.4119 29.4314 9.96032 29.8829Z" fill="currentColor"/>
<path d="M8.00859 41.4242C7.13203 41.9687 7.10547 42.1414 7.10547 46.3516C7.10547 50.5617 7.13203 50.7344 8.00859 51.2656C8.40703 51.518 8.69922 51.5312 12.325 51.5312C16.575 51.5312 16.6281 51.518 17.1992 50.7609C17.4516 50.4289 17.4648 50.1633 17.5047 46.5641C17.5445 42.4203 17.5313 42.2742 16.8539 41.6234L16.4555 41.2383L12.4445 41.1984C8.64609 41.1719 8.40703 41.1852 8.00859 41.4242ZM15.4063 46.3516V49.4062H12.2852H9.16406V46.3516V43.2969H12.2852H15.4063V46.3516Z" fill="currentColor"/>
<path d="M13.7332 44.0937C13.5075 44.1867 13.1621 44.5453 12.0731 45.8734C12.02 45.9398 11.741 45.807 11.4621 45.5679C10.8512 45.0632 10.2668 45.0234 9.85511 45.4617C9.31058 46.0328 9.45667 46.5242 10.466 47.5734C11.9403 49.114 12.1926 49.1007 13.6535 47.2945C15.327 45.2359 15.4067 45.0632 14.8489 44.439C14.4903 44.0539 14.1184 43.9343 13.7332 44.0937Z" fill="currentColor"/>
<path d="M37.4521 27.9571C35.8583 28.2891 34.331 28.9399 33.0693 29.7899C32.1794 30.3875 30.7318 31.8352 30.0677 32.7649C27.5974 36.1914 27.1591 40.893 28.9388 44.7047C29.5896 46.0727 30.081 46.8031 31.1833 47.9719C34.7693 51.7703 40.6263 52.7531 45.288 50.336C47.506 49.1805 49.4318 47.2016 50.5341 44.9571C53.8279 38.2633 50.2419 30.2414 43.0302 28.1563C41.7419 27.7844 38.7536 27.6781 37.4521 27.9571ZM42.9372 30.3742C44.5708 30.9453 45.4474 31.5031 46.7622 32.8047C47.7185 33.7477 47.9974 34.1461 48.5154 35.1953C49.3786 36.9485 49.5911 37.8649 49.5911 39.711C49.5911 41.5172 49.3786 42.4867 48.6216 44.0274C47.6122 46.0594 46.138 47.5203 44.0263 48.543C39.2318 50.8672 33.5474 48.968 31.0771 44.2C30.32 42.7524 30.0013 41.4242 30.0013 39.711C30.0013 35.8196 31.9935 32.6321 35.5263 30.8656C37.1333 30.0688 38.0497 29.8828 40.1083 29.9227C41.556 29.9625 41.9146 30.0156 42.9372 30.3742Z" fill="currentColor"/>
</svg>
