<svg width="39" height="28" viewBox="0 0 39 28" fill="none" xmlns="http://www.w3.org/2000/svg">
<path fill-rule="evenodd" clip-rule="evenodd" d="M0.120052 13.363C3.15455 5.5895 10.2963 0 19.2493 0C28.2023 0 35.3441 5.5895 38.3803 13.363C38.5404 13.7726 38.5404 14.2274 38.3803 14.637C35.3441 22.4105 28.2023 28 19.2493 28C10.2963 28 3.15455 22.4105 0.120052 14.637C-0.0400173 14.2274 -0.0400173 13.7726 0.120052 13.363ZM19.2493 19.25C20.6417 19.25 21.977 18.6969 22.9616 17.7123C23.9462 16.7277 24.4993 15.3924 24.4993 14C24.4993 12.6076 23.9462 11.2723 22.9616 10.2877C21.977 9.30312 20.6417 8.75 19.2493 8.75C17.8569 8.75 16.5216 9.30312 15.537 10.2877C14.5524 11.2723 13.9993 12.6076 13.9993 14C13.9993 15.3924 14.5524 16.7277 15.537 17.7123C16.5216 18.6969 17.8569 19.25 19.2493 19.25Z" fill="currentColor"/>
</svg>
