<svg width="60" height="60" viewBox="0 0 60 60" fill="none" xmlns="http://www.w3.org/2000/svg">
<rect width="60" height="60" rx="8" fill="white"/>
<path d="M31.2012 34.6797H22.207V28.7324H31.2012C32.6855 28.7324 33.877 28.4199 34.7754 27.7949C35.6738 27.1699 36.3281 26.3105 36.7383 25.2168C37.168 24.123 37.3828 22.8828 37.3828 21.4961C37.3828 20.168 37.168 18.918 36.7383 17.7461C36.3281 16.5742 35.6738 15.627 34.7754 14.9043C33.877 14.1816 32.6855 13.8203 31.2012 13.8203H24.2285V50.5H17.1094V7.84375H31.2012C34.0332 7.84375 36.4355 8.42969 38.4082 9.60156C40.4004 10.7734 41.9238 12.3848 42.9785 14.4355C44.0332 16.4668 44.5605 18.8008 44.5605 21.4375C44.5605 24.1914 44.0332 26.5547 42.9785 28.5273C41.9238 30.5 40.4004 32.0234 38.4082 33.0977C36.4355 34.1523 34.0332 34.6797 31.2012 34.6797Z" fill="#3A48E8"/>
</svg>
